<?xml version="1.0" encoding="UTF-8"?>
<!DOCTYPE svg PUBLIC "-//W3C//DTD SVG 1.1//EN" "http://www.w3.org/Graphics/SVG/1.1/DTD/svg11.dtd">
<!-- Creator: CorelDRAW -->
<svg xmlns="http://www.w3.org/2000/svg" xml:space="preserve" width="24.2355mm" height="24.2354mm" style="shape-rendering:geometricPrecision; text-rendering:geometricPrecision; image-rendering:optimizeQuality; fill-rule:evenodd; clip-rule:evenodd"
viewBox="0 0 29.4785 29.4784"
 xmlns:xlink="http://www.w3.org/1999/xlink">
 <defs>
  <style type="text/css">
   <![CDATA[
    .fil0 {fill:url(#id0)}
   ]]>
  </style>
  <linearGradient id="id0" gradientUnits="userSpaceOnUse" x1="0.507699" y1="9.02169" x2="28.9707" y2="20.4567">
   <stop offset="0" style="stop-color:#AA8447"/>
   <stop offset="0.0509804" style="stop-color:#BD9551"/>
   <stop offset="0.109804" style="stop-color:#D3AA5D"/>
   <stop offset="0.231373" style="stop-color:#BB934E"/>
   <stop offset="0.34902" style="stop-color:#A57F40"/>
   <stop offset="0.478431" style="stop-color:#E1CF71"/>
   <stop offset="0.690196" style="stop-color:#A78343"/>
   <stop offset="0.839216" style="stop-color:#BA944D"/>
   <stop offset="0.901961" style="stop-color:#D0A759"/>
   <stop offset="0.929412" style="stop-color:#B89454"/>
   <stop offset="1" style="stop-color:#A3824D"/>
  </linearGradient>
 </defs>
 <g id="Layer_x0020_1">
  <metadata id="CorelCorpID_0Corel-Layer"/>
  <path class="fil0" d="M11.1457 22.033c0.056438,0.0442746 0.193033,0.111052 0.196073,0.198141 0.00632495,0.166152 -0.286569,-0.096942 -0.323789,-0.115309 -0.16749,-0.0813729 -0.310896,0.00523025 -0.217116,0.17941 0.0821027,0.15192 0.18318,0.294718 0.331573,0.387646 0.583598,0.364779 1.37458,0.0976718 2.00489,0.090982 0.107402,-0.00133797 0.103267,0.120539 0.0350305,0.169192 -0.060087,0.0431799 -0.148636,0.044153 -0.217846,0.0588707 -0.163719,0.0345439 -0.321843,0.0242051 -0.489454,0.0313815 -0.314909,0.013623 -0.635779,-0.0881844 -0.943755,-0.0707908 -0.276595,0.0155691 -0.622643,-0.00474371 -0.789646,0.288393 -0.0881844,0.153988 0.123701,0.125161 0.133919,0.221252 0.00717638,0.0672634 -0.250322,0.149001 -0.295083,0.184153 -0.2457,0.193276 -0.375483,0.486048 -0.250444,0.786483 0.0353954,0.0851435 0.111295,0.349089 0.250079,0.306638 0.0609384,-0.0188532 0.326221,-0.0728585 0.161043,-0.178558 -0.285717,-0.182207 -0.258715,-0.506726 0.0127715,-0.689906 0.252633,-0.170409 0.542364,-0.26358 0.827717,-0.359184 0.639306,-0.213832 1.31243,-0.208237 1.9504,-0.418055 0.308098,-0.101078 0.539567,-0.32987 0.757048,-0.550392 0.0715206,-0.0726153 0.509767,-0.728342 0.255796,-0.74233 -0.252511,-0.0139879 -0.220157,-0.084657 -0.385092,0.132216 -0.0929281,0.121147 -0.198141,0.246308 -0.313207,0.347264 -0.241443,0.212494 -0.719463,0.265526 -0.918577,0.261147 -0.382294,-0.00863599 -0.908603,-0.0795484 -1.18544,-0.352129 -0.12431,-0.121512 -0.228306,-0.288637 -0.302381,-0.445787 -0.189748,-0.403094 0.0814945,-1.44793 0.424258,-1.34892 0.0610601,0.0180018 0.184397,0.0752912 0.235969,0.0115552 0.0440314,-0.0547351 -0.0570462,-0.144014 -0.0942661,-0.168341 -0.126499,-0.0813729 -0.272946,-0.0655605 -0.407838,-0.0487751 -0.197898,0.02457 -0.335952,0.222103 -0.425839,0.379983 -0.041842,0.07371 -0.103875,0.438003 -0.201547,0.394458 -0.216994,-0.0968204 -0.232442,0.233293 -0.23378,0.396282 -0.00133797,0.162624 0.0761426,0.294232 0.178072,0.419636 0.0717638,0.0887925 0.150339,0.172963 0.24047,0.243389l0 0zm6.90538 -1.51543c0.129783,0.0812513 0.223076,0.241443 0.268567,0.383146 0.0954824,0.298246 0.0351521,0.661322 -0.114457,0.933781 -0.331938,0.60306 -1.18045,0.844016 -1.81137,0.684554 -0.350913,-0.0881844 -0.644901,-0.262364 -0.870653,-0.548689 -0.0999828,-0.126742 -0.117376,-0.242294 -0.301165,-0.187681 -0.197046,0.0589923 -0.223441,0.122363 -0.131972,0.3053 0.304206,0.60902 0.831001,0.950567 1.46143,1.14834 0.304206,0.0949959 0.637603,0.108254 0.952026,0.134648 0.430097,0.0362468 1.19748,0.383389 1.3089,0.463181 0.125769,0.0902522 0.246673,0.212251 0.271851,0.372442 0.0250565,0.159583 -0.118106,0.214562 -0.130026,0.343128 -0.0113119,0.127837 0.212616,0.0124066 0.246308,-0.0184883 0.277933,-0.255552 0.0960906,-0.654754 -0.149853,-0.867126 -0.102659,-0.0894007 -0.215535,-0.104362 -0.334128,-0.161773 -0.0971853,-0.0469506 0.206899,-0.13404 0.22113,-0.14596 0.11689,-0.0973069 -0.182815,-0.290461 -0.248862,-0.328532 -0.136595,-0.0797917 -0.518038,-0.0851435 -0.779428,-0.0349089 -0.173571,0.0335709 -0.348967,0.0339358 -0.524849,0.0390444 -0.193397,0.00547351 -0.777482,0.0858733 -0.893156,-0.136351 -0.0939012,-0.179045 0.263823,-0.0947526 0.303233,-0.0872113 0.14888,0.0290704 0.330965,0.0620331 0.492495,0.0602086 0.371591,0 0.744641,0.00705475 1.09276,-0.149244 0.0839272,-0.0374632 0.650375,-0.425718 0.47352,-0.558542 -0.135257,-0.101929 -0.268202,0.0872113 -0.387768,0.0684797 -0.144014,-0.0217724 0.107767,-0.226482 0.134648,-0.252268 0.178801,-0.172355 0.446395,-0.589923 0.299462,-0.854111 -0.0311382,-0.0554649 -0.0311382,-0.181599 -0.0936579,-0.211764 -0.0546135,-0.0270027 -0.102416,0.0450044 -0.154475,0.0198263 -0.0406256,-0.0193397 -0.0984016,-0.276838 -0.133675,-0.329992 -0.121269,-0.182572 -0.530444,-0.458559 -0.742573,-0.246673 -0.141946,0.141946 0.216143,0.126012 0.275743,0.163354l0 -0.000121634zm-1.11173 3.36268c-0.109714,0.0740749 -0.231104,0.14815 -0.369523,0.135743 -0.585666,-0.0540053 -0.953364,-0.599046 -1.30695,-1.00555 -0.0628846,-0.0724936 -0.146325,-0.146812 -0.243997,-0.166152 -0.0756561,-0.0142311 -0.14888,0.0358819 -0.226847,0.0285839 -0.185005,-0.0181234 -0.264918,-0.0328411 -0.401756,0.114336 -0.229644,0.248011 -0.403337,0.533485 -0.652078,0.768116 -0.232077,0.220278 -0.569245,0.385214 -0.886466,0.259566 -0.0834407,-0.0329627 -0.17795,-0.229644 -0.253241,-0.228793 -0.128445,0.00194614 -0.0800349,0.249106 -0.0540053,0.30749 0.0729802,0.162503 0.265891,0.234875 0.417203,0.290583 0.113727,0.0415987 0.234875,-0.0108254 0.346777,-0.00535188 0.212494,0.00985232 0.196073,-0.084657 0.297759,0.115187 0.0966987,0.18914 0.272703,0.0322329 0.395309,-0.0512078 0.218211,-0.149366 0.265648,-0.587612 0.384241,-0.87783 0.0317464,-0.0780888 0.232685,-0.273554 0.25312,-0.0780888 0.0125283,0.115187 -0.110443,0.2502 -0.156786,0.347751 -0.0718855,0.149853 -0.221616,0.333155 -0.241686,0.499063 -0.0132581,0.108619 -0.0138662,0.372321 0.0563164,0.462208 0.044153,0.0568029 0.201425,-0.0369766 0.199479,0.046464 -0.00352738,0.136595 0.0248133,0.221981 0.129418,0.334614 0.12808,0.138176 0.180869,0.274405 0.336439,0.0864815 0.0857517,-0.104727 0.298367,-0.263945 0.167976,-0.405162 -0.103024,-0.111903 0.0974285,-0.0417203 0.12881,-0.0366117 0.117376,0.0186099 0.147542,-0.239983 0.157029,-0.31418 0.0448828,-0.349697 -0.314909,-0.669836 -0.425596,-0.976718 -0.0611817,-0.169314 0.191208,-0.15411 0.236577,0.00389228 0.044153,0.15484 0.0980367,0.298611 0.156786,0.44822 0.0529106,0.133067 0.142068,0.302746 0.252876,0.400053 0.089644,0.0782104 0.207385,0.144501 0.310287,0.190113 0.127715,0.0566813 0.109105,-0.161043 0.165422,-0.200574 0.0751696,-0.0531539 0.288028,0.0402607 0.385822,0.0248133 0.150096,0 0.260782,0.014596 0.379375,-0.0900089 0.104605,-0.0921983 0.265648,-0.225752 0.257377,-0.379375 -0.0114336,-0.212859 -0.100104,-0.111538 -0.195465,-0.0476804zm3.60729 -3.11236c0.0135013,-0.0762643 -0.00620331,0.136351 0,0zm-1.41715 1.83594c0.1608,-0.0572894 0.316734,-0.128932 0.477412,-0.185856 0.356873,-0.126986 0.714719,-0.258836 1.08181,-0.353589 0.563407,-0.145352 1.25891,-0.390444 1.75773,0.0728585 0.112268,0.104727 0.15484,0.0913469 0.0975502,-0.0521808 -0.0505996,-0.127715 -0.125648,-0.210061 -0.233537,-0.299097 -0.0602086,-0.0495049 -0.32683,-0.128445 -0.228914,-0.224779 0.130513,-0.12808 0.167003,-0.200331 -0.0463424,-0.244362 -0.358211,-0.0743181 -0.635292,-0.00498698 -0.913104,0.229401 -0.0530323,0.0445179 -0.25312,0.274041 -0.331695,0.166273 -0.0631279,-0.0867248 0.16457,-0.209818 0.212494,-0.232928 0.117133,-0.056438 0.219914,-0.139392 0.267472,-0.263945 0.0479236,-0.125404 -0.261512,-0.127229 -0.33206,-0.12881 -0.129053,-0.00255431 -0.247038,0.119201 -0.339723,0.19583 -0.0745614,0.0616682 -0.192303,0.168341 -0.245822,0.247038 -0.0845354,0.125283 -0.161286,0.221252 -0.272946,0.325005 -0.0596005,0.0554649 -0.111538,-0.041842 -0.0926848,-0.0906171 0.0246916,-0.0662903 0.103389,-0.124796 0.150704,-0.173571 0.225509,-0.236213 0.394215,-0.486535 0.409054,-0.822608 0.0220157,-0.125161 -0.089644,-0.290461 -0.1951,-0.351278 -0.0553433,-0.0323545 -0.278419,-0.0731018 -0.180626,0.0581409 0.189748,0.254944 0.0694528,0.570583 -0.101199,0.794268 -0.216873,0.284379 -0.448342,0.510253 -0.738438,0.716057 -0.13623,0.0966987 -0.255674,0.153867 -0.342155,0.297273 -0.0524241,0.0870897 -0.22636,0.290218 -0.232563,0.3812 -0.00693312,0.101321 0.328776,-0.0440314 0.372685,-0.0597221zm-10.817 -1.42433c0.000851435,0.140244 0.202155,0.20702 0.301651,0.260904 0.031868,0.0173936 0.310531,0.278784 0.139027,0.23378 -0.298975,-0.0780888 -0.490427,-0.448828 -0.841948,-0.420852 -0.0544919,-0.00583841 -0.41623,0.0836839 -0.438976,0.135621 -0.0339358,0.0774806 0.122972,0.268324 0.0346656,0.297151 -0.0868464,0.0285839 -0.617899,0.448463 -0.431799,0.484345 0.0778455,0.0152042 0.212129,-0.161043 0.283041,-0.194614 0.154718,-0.0731018 0.338263,-0.130513 0.511226,-0.113849 0.158245,0.0154475 0.30749,0.0121634 0.466951,0.033206 0.174058,0.0227455 0.351035,0.0818594 0.519376,0.130756 0.582868,0.169679 1.17899,0.292529 1.72489,0.560609 0.0373415,0.0186099 0.333519,0.130391 0.268202,-0.00328411 -0.0570462,-0.116403 -0.161043,-0.200939 -0.196803,-0.333155 -0.0301651,-0.110443 -0.225144,-0.174788 -0.318437,-0.22259 -0.140122,-0.0720071 -0.246186,-0.190843 -0.352494,-0.303962 -0.186099,-0.198263 -0.433381,-0.375361 -0.541026,-0.641982 -0.0559515,-0.140244 -0.108132,-0.263337 -0.0475587,-0.413311 0.0204344,-0.0503563 0.218332,-0.268081 0.0561947,-0.274284 -0.287907,-0.0110687 -0.426569,0.34325 -0.361374,0.579098 0.0830758,0.303111 0.281825,0.566326 0.516456,0.775536 0.0142311,0.0131364 0.102537,0.113363 0.0125283,0.111538 -0.074683,-0.00170287 -0.150826,-0.0894007 -0.203858,-0.131972 -0.137081,-0.10947 -0.242537,-0.244119 -0.366117,-0.36782 -0.0884276,-0.0885493 -0.22782,-0.280609 -0.372077,-0.270148 -0.07967,0.00571678 -0.362711,-0.0469506 -0.361738,0.0890358l0 0.000243267zm-4.62512 -0.588585c0.200087,0.0957257 0.248862,0.0415987 0.430826,-0.0748047 0.127472,-0.0806431 0.261391,-0.152042 0.403824,-0.20325 0.226847,-0.082346 0.573624,-0.244484 0.820054,-0.212251 0.0408689,0 0.230496,0.0203128 0.0998612,0.0751696 -0.110687,0.0465857 -0.293259,0.13477 -0.359914,0.239618 -0.0688446,0.108376 0.197776,0.0836839 0.136716,0.182815 -0.0571678,0.0930497 -0.070061,0.23159 -0.0519376,0.336682 0.0204344,0.121025 0.0682365,0.254822 0.210913,0.264067 0.18914,0.0126499 0.0703042,-0.15934 0.0692095,-0.254579 -0.00425718,-0.265161 0.232199,-0.48921 0.485318,-0.531782 0.562556,-0.0939012 1.23835,0.0453693 1.75225,0.292651 0.235239,0.112998 0.450409,0.286447 0.714962,0.313936 0.40577,0.0415987 -0.188532,-0.358089 -0.273067,-0.407594 -0.997031,-0.580436 -2.12178,-0.878681 -3.26878,-0.653659 -0.309314,0.0605735 -0.597829,0.164449 -0.889872,0.288637 -0.13404,0.0574111 -0.271,0.127594 -0.374267,0.232199 -0.0812513,0.0827109 0.0485318,0.0907387 0.0940228,0.112511l-0.000121634 -0.000364901zm17.4846 0.388255c0.29557,0.0102172 0.495414,-0.146082 0.757169,-0.249471 0.541513,-0.214075 1.49098,-0.352738 1.61907,-0.358576 0.266378,-0.0307733 0.570948,0.125161 0.698664,0.358819 0.0756561,0.138906 0.0572894,0.193641 -0.00425718,0.325735 -0.0622764,0.132581 0.106065,0.113119 0.170652,0.0733451 0.141338,-0.0864815 0.139392,-0.220157 0.118836,-0.371834 -0.0190965,-0.142433 -0.0805215,-0.15788 0.0199479,-0.271365 0.0861166,-0.0974285 -0.292164,-0.288637 -0.20994,-0.303354 0.231834,-0.0409905 0.627508,0.0911036 0.830514,0.201304 0.121755,0.0660471 0.240226,0.10424 0.349575,0.194371 0.108984,0.089644 0.173936,0.138419 0.312842,0.065074 0.290826,-0.152529 -0.104483,-0.321599 -0.268567,-0.398715 -0.266864,-0.125404 -0.551365,-0.210183 -0.840245,-0.266134 -0.302138,-0.0588707 -0.621183,-0.0435448 -0.927821,-0.0701826 -0.230496,-0.0199479 -0.501374,0.0310166 -0.724815,0.0870897 -0.466465,0.116647 -0.930741,0.310287 -1.34539,0.55246 -0.164692,0.0960906 -0.334492,0.18245 -0.502955,0.272094 -0.0469506,0.0249349 -0.231955,0.153623 -0.0532755,0.159705l0 -0.000364901zm-5.84705 0.0872113c0.045491,-0.159583 0.101078,-0.319288 0.225022,-0.436665 0.229158,-0.216508 0.699515,-0.320505 0.911279,-0.00243267 0.0400175,0.0603303 0.0754128,0.478993 -0.0385579,0.39908 -0.138054,-0.0959689 -0.196073,-0.209088 -0.356751,-0.0571678 -0.116403,0.110565 -0.139757,0.259323 -0.091955,0.407108 0.0384362,0.120417 0.224171,0.226725 0.366969,0.231712 0.424988,0.00790619 0.660592,-0.420487 0.664728,-0.72226 0.00450044,-0.345804 -0.23974,-0.729558 -0.579463,-0.83319 -0.39385,-0.119931 -0.785267,-0.127594 -1.09628,0.191573 -0.139879,0.144014 -0.244848,0.301165 -0.332911,0.481304 -0.0445179,0.0911036 -0.164935,0.395674 -0.0903738,0.484345 0.115552,0.137933 0.379497,-0.00705475 0.41842,-0.143528l-0.000121634 0.000121634zm-2.00623 0.544067c0.437881,0 0.561947,-0.708151 0.0980367,-0.700731 -0.191573,0.00304084 -0.273919,0.229644 -0.299827,-0.0529106 -0.0158124,-0.167976 0.138906,-0.297151 0.27623,-0.360644 0.357846,-0.165422 0.703407,0.000364901 0.886952,0.340817 0.0745614,0.139514 0.0394093,0.339236 0.208237,0.404189 0.191451,0.0735883 0.255309,-0.0436665 0.222711,-0.216021 -0.0745614,-0.390201 -0.235118,-0.72445 -0.602938,-0.914198 -0.311382,-0.160313 -0.649037,-0.161529 -0.955189,0.0180018 -0.317829,0.187073 -0.478628,0.553676 -0.442138,0.903859 0.0290704,0.280122 0.300922,0.608776 0.607925,0.577638zm9.25267 0.239618c-0.036855,0.0304084 0.117741,0.321721 0.141095,0.364414 0.105821,0.193519 0.100469,0.53239 -0.0692095,0.685405 -0.0617899,0.0554649 -0.160678,0.0738316 -0.240348,0.0557082 -0.089644,-0.0204344 -0.128688,-0.153258 -0.213589,-0.156299 -0.0907387,-0.00328411 -0.121147,0.124188 -0.20325,0.142311 -0.127594,0.028219 -0.178315,0.0420852 -0.225995,0.183424 -0.0856301,0.257255 0.151555,0.383389 0.339479,0.455518 0.212616,0.0813729 0.534823,-0.0442746 0.668012,-0.150582 0.162259,-0.12954 0.27696,-0.397255 0.283285,-0.624467 0.028219,-0.24716 -0.103997,-0.53835 -0.242902,-0.734424 -0.0251782,-0.0357603 -0.16749,-0.277568 -0.236577,-0.221008zm-15.0148 0.94485c-0.205561,-0.215656 -0.193762,0.105213 -0.306638,0.162867 -0.213345,0.107889 -0.409419,-0.190113 -0.40431,-0.372199 0.00352738,-0.117863 0.0344223,-0.258471 0.067385,-0.371104 0,-0.000729802 0.117985,-0.293137 0.00985232,-0.224171 -0.14669,0.0928065 -0.273676,0.41769 -0.273067,0.588585 -0.000608168,-0.0158124 -0.0014596,-0.028219 0,0.00973069 0.000608168,0.00960906 0.000729802,0.0128932 0.000729802,0.0119201 0.0301651,0.45418 0.270635,1.09543 0.84657,1.02416 0.17722,-0.0223806 0.537012,-0.153258 0.458072,-0.415865 -0.0709124,-0.23451 -0.253241,-0.26212 -0.398593,-0.413919l0 0zm6.54377 -1.41363c0.12212,0.500887 1.53757,0.39239 1.46423,-0.0178801 -0.0181234,-0.272581 -0.166273,-0.0788186 -0.317585,-0.0144744 -0.151555,0.0643442 -0.3306,0.0731018 -0.493833,0.0726153 -0.144622,0 -0.305179,-0.0180018 -0.429853,-0.0981583 -0.090982,-0.0582625 -0.280001,-0.175639 -0.222954,0.0578976zm0.709367 1.30063c0.255187,-0.00170287 0.270878,-0.406743 0.00960906,-0.405891 -0.255674,0.0010947 -0.264432,0.407351 -0.00960906,0.405891zm-8.5669 -12.6138c0.150339,-0.0947526 0.313571,-0.171503 0.487872,-0.210426 0.0740749,-0.015934 0.437273,-0.00887925 0.457951,-0.108132 0.0152042,-0.072372 -0.14888,-0.148515 0.00960906,-0.199236 0.0965771,-0.0317464 0.194127,-0.0598437 0.293137,-0.0831974 0.193641,-0.0328411 0.377672,0.0183667 0.558542,0.0825892 0.370618,0.132216 0.755466,0.291799 1.10577,0.471574 0.427056,0.219427 0.833434,0.478993 1.28044,0.656457 0.0765076,0.0299219 0.992165,0.298489 0.870289,0.105335 -0.124553,-0.197533 -0.832461,-0.244362 -1.04556,-0.334736 -0.329384,-0.139635 -0.688811,-0.34471 -0.934633,-0.609749 -0.110322,-0.118714 -0.20848,-0.265283 -0.232685,-0.429002 -0.0238402,-0.161286 0.0852652,-0.32391 0.0323545,-0.478872 -0.0966987,-0.281825 0.467195,0.103632 0.474493,0.173693 0.00389228,-0.0654389 -0.205926,-0.478872 -0.216265,-0.552946 -0.0397742,-0.28365 0.0856301,-0.505509 0.235361,-0.732721 0.233293,-0.353224 0.140365,0.0889142 0.333155,0.0803998 0.0813729,-0.00316247 0.236456,-0.358698 0.320626,-0.42815 0.163962,-0.135257 0.420123,-0.234753 0.63359,-0.182815 0.122363,0.0304084 0.376699,0.320991 0.130026,0.268202 -0.426812,-0.0918334 -0.790862,0.37597 -0.867126,0.744884 -0.249227,1.20721 0.719706,2.23684 1.91232,2.21908 0.545892,-0.00814945 1.02902,-0.298975 1.30732,-0.768238 0.09828,-0.16603 0.113971,-0.386552 0.340209,-0.401026 0.125161,-0.00790619 0.579706,-0.034179 0.577152,0.159948 -0.00668985,0.509402 -0.479358,1.10346 -0.887439,1.3747 -0.473276,0.315518 -1.0025,0.435083 -1.55436,0.471938 -0.301286,0.0200695 -0.645631,-0.0540053 -0.937065,0.0338141 -0.261026,0.0782104 -0.367334,-0.0390444 -0.146812,-0.242416 0.107281,-0.0986449 -0.435205,-0.172112 -0.472303,-0.180504 -0.233293,-0.0552217 -0.475587,-0.0762643 -0.713381,-0.110322 -0.291313,-0.0423285 -0.496144,0.0630062 -0.742087,0.188167 -0.140852,0.0718855 -0.397134,0.0862382 -0.333884,-0.13623 0.0594788,-0.207264 -0.0795484,-0.0943877 -0.1653,-0.00206777 -0.135257,0.145352 -0.274162,0.32391 -0.4914,0.330722 -0.117863,0.00401391 -0.229158,-0.0457342 -0.315883,-0.123093 -0.131972,-0.117985 0.0492616,-0.173206 0.120417,-0.226117 0.0653173,-0.0473155 0.456613,-0.361738 0.347629,-0.400418 -0.358576,-0.12735 -0.0277325,-0.265648 0.200087,-0.336439 0.148271,-0.0463424 0.454788,-0.0312598 0.605371,0.0252998 -0.0707908,-0.0498698 -0.0980367,-0.0610601 -0.0953608,-0.0552217 -0.330722,-0.158732 -0.76094,-0.0436665 -1.10443,-0.0262729 -0.16603,0.00839272 -0.322937,0.0653173 -0.465127,0.149366 -0.123093,0.0717638 -0.250322,0.244119 -0.410757,0.194006 -0.23755,-0.07371 0.148515,-0.516335 -0.328411,-0.139149 -0.0886709,0.0701826 -0.595032,0.701096 -0.235239,0.618872 0.354927,-0.081008 0.284988,0.505753 -0.0278541,0.573867 -0.345075,0.0748047 -0.528012,-0.25908 -0.517186,-0.547959 0.0144744,-0.402607 0.285352,-0.674337 0.606465,-0.877465l0.000364901 0zm2.48218 0.0547351c0.0327194,0.0160556 0.0645875,0.0335709 0.095604,0.0552217 -0.0558298,-0.0206777 -0.093293,-0.0482885 -0.095604,-0.0552217zm12.6543 0.0580192c0.137933,0.00291921 -0.218211,0 0,0zm-6.14262 -0.795241c0.24424,-0.0361252 0.570827,-0.0679932 0.659011,0.20325 0.206534,0.637603 0.926727,1.01175 1.56932,0.992774 1.1498,-0.034179 2.03262,-1.04009 1.70445,-2.19439 -0.0816162,-0.287542 -0.293137,-0.603668 -0.587855,-0.704624 -0.135135,-0.0463424 -0.538107,-0.0659254 -0.18537,-0.239618 0.22782,-0.112025 0.48994,-0.0271243 0.678594,0.117985 0.082346,0.063736 0.311017,0.49213 0.355778,0.488481 0.0566813,-0.00450044 0.186586,-0.457221 0.298611,-0.153137 0.103145,0.279271 0.334614,0.410635 0.290826,0.747682 -0.00741965,0.0581409 -0.209088,0.468898 -0.183667,0.490913 0.0852652,0.0729802 0.288637,-0.341061 0.424501,-0.141825 0.145474,0.212859 0.025908,0.624224 -0.0991314,0.813242 -0.133554,0.201304 -0.323424,0.355535 -0.529106,0.47875 -0.256525,0.154231 -0.535188,0.270392 -0.815918,0.370496 -0.226603,0.0811296 -0.495535,0.0566813 -0.71034,0.151799 -0.139392,0.0619115 0.0165422,0.150461 0.103389,0.148636 0.161651,-0.00340574 0.321843,-0.0265161 0.47802,-0.0667769 0.306517,-0.0784537 0.59345,-0.219914 0.874424,-0.363563 0.549784,-0.280001 1.10443,-0.560731 1.67392,-0.800228 0.303111,-0.127837 0.532025,-0.210426 0.846448,-0.0743181 0.0754128,0.0328411 0.236942,0.0603303 0.131972,0.179045 -0.029557,0.0327194 -0.0621548,0.0900089 0.00985232,0.108862 0.210183,0.0558298 0.425596,0.0169071 0.646726,0.0962122 0.251782,0.0907387 0.464276,0.266013 0.64405,0.4616 0.291556,0.31722 0.40358,1.26195 -0.285352,1.13022 -0.196195,-0.0379497 -0.387281,-0.336682 -0.213467,-0.497603 0.15411,-0.144014 0.347386,0.0693312 0.319045,-0.185126 -0.0271243,-0.244848 -0.335466,-0.485683 -0.529714,-0.596126 -0.159218,-0.0907387 -0.0422069,0.132459 -0.0880627,0.185735 -0.144622,0.165787 -0.481061,-0.156421 -0.599775,-0.222711 -0.237186,-0.133189 -0.476925,-0.124674 -0.738559,-0.130391 -0.193276,0 -0.393971,-0.0166638 -0.581774,0.0420852 -0.000243267,0 -0.149853,0.0626413 -0.0644658,0.0808864 0.11093,0.0243267 0.843286,-0.131608 0.787943,0.196682 -0.0119201,0.0716422 -0.233415,0.0858733 -0.133797,0.172476 0.128445,0.112511 0.22709,0.257377 0.372442,0.351643 0.29338,0.189992 -0.293015,0.309193 -0.465492,0.202885 -0.134162,-0.0827109 -0.252755,-0.212372 -0.370496,-0.316977 -0.115917,-0.101929 -0.0467073,0.217238 -0.0767508,0.25093 -0.110322,0.123093 -0.69392,-0.195952 -0.861166,-0.208602 -0.379132,-0.0287055 -0.741843,0.130391 -1.1172,0.137689 -0.229158,0.00450044 -0.403945,0.0152042 -0.204588,0.181477 0.0643442,0.0535188 0.155326,0.255674 -0.0114336,0.254336 -0.131729,-0.000608168 -0.289123,-0.121269 -0.428637,-0.141946 -0.400661,-0.0588707 -0.809472,-0.0149609 -1.21135,-0.083319 -0.737465,-0.125526 -1.35476,-0.481183 -1.72258,-1.15163 -0.10424,-0.190478 -0.409054,-0.710949 -0.0532755,-0.763859l0 0zm-4.02461 -2.74795c0.0298002,-0.155569 0.214075,-0.31418 0.343858,-0.387525 0.22186,-0.125039 0.498211,-0.132094 0.74379,-0.090982 0.0533972,0.00851435 0.431434,0.148636 0.447247,0.11689 -0.00729802,0.0147177 -0.48398,-0.380957 -0.179896,-0.374145 0.141338,0.00267594 0.268689,-0.0199479 0.404675,0.0280974 0.0533972,0.0183667 0.234023,0.15192 0.28219,0.124431 0.0639793,-0.0373415 -0.0488967,-0.23378 0.118714,-0.193397 0.121025,0.0293137 0.240105,0.0722504 0.342764,0.144501 0.258836,0.181964 0.407838,0.551244 0.523876,0.834163 0.165787,0.403702 0.329019,0.119809 0.184397,-0.181234 -0.160921,-0.335952 -0.29934,-0.666552 -0.442746,-1.00944 -0.102537,-0.245335 0.0452477,-0.751209 0.298611,-0.354319 0.0778455,0.12285 0.128445,-0.172355 0.245092,-0.193033 0.241686,-0.0425718 0.471574,0.0199479 0.572165,0.229888 0.0588707,0.123336 0.244605,-0.30676 0.366604,-0.147906 0.163232,0.212737 -0.0479236,0.638698 -0.13477,0.833434 -0.14073,0.312963 -0.351886,0.604154 -0.453085,0.932565 -0.03053,0.0997396 0.0811296,0.167733 0.160435,0.119444 0.10497,-0.063736 0.142433,-0.211886 0.188167,-0.315639 0.117012,-0.261877 0.249471,-0.558663 0.499184,-0.719585 0.0771157,-0.0502347 0.319653,-0.185735 0.408932,-0.100226 0.0316247,0.0298002 0.00754128,0.18245 0.0827109,0.15934 0.273919,-0.0840488 0.446882,-0.0935363 0.73491,-0.109835 0.25835,-0.0150826 -0.194614,0.292286 -0.184397,0.278298 -0.071034,0.0973069 0.493103,0.000608168 0.545892,0.00620331 0.205804,-0.0266378 0.485197,0.0425718 0.645753,0.177342 0.0602086,0.0497482 0.318194,0.363076 0.183667,0.431556 -0.0632495,0.0325978 -0.360036,-0.241078 -0.472912,-0.268689 -0.231347,-0.0560731 -0.475223,-0.0642226 -0.71034,-0.0310166 -0.579584,0.081008 -1.06819,0.407229 -1.4804,0.806309 -0.144501,0.139757 -0.377672,0.524849 -0.576665,0.569002 -0.0722504,0.0165422 -0.376699,-0.0201912 -0.431556,-0.0611817 -0.428394,-0.319532 -0.71107,-0.83319 -1.18654,-1.09276 -0.45272,-0.247889 -1.0452,-0.395066 -1.55277,-0.260539 -0.0536404,0.0138662 -0.549419,0.261147 -0.517551,0.0996179l0 0.000364901zm1.06673 1.85382c0.481183,-0.432043 0.997152,0.276716 0.717638,0.737951 -0.257133,0.424015 -0.826379,0.508064 -1.22862,0.221981 -0.895467,-0.636265 -0.439219,-2.3867 0.733694,-2.27698 0.59041,-0.0358819 1.12122,0.260053 1.46824,0.718368 0.159097,0.210548 0.297273,0.44153 0.32391,0.709854 0.0229888,0.234753 -0.417325,0.133919 -0.555501,0.141946 -0.241321,0.0132581 -0.28815,-0.355535 -0.420731,-0.500036 -0.177099,-0.194371 -0.44226,-0.302746 -0.703407,-0.305179 -0.225144,-0.00194614 -0.486899,0.0999828 -0.5718,0.325492 -0.106794,0.283528 0.000486535,0.437638 0.236577,0.226603zm4.35035 -0.4706c-0.257133,0.0487751 -0.504293,0.16384 -0.644658,0.39239 -0.175031,0.285839 -0.14,0.329019 -0.50259,0.329384 -0.310896,0 -0.447733,0.00352738 -0.317099,-0.33729 0.0987665,-0.258228 0.250079,-0.503077 0.444814,-0.700488 0.378281,-0.384484 0.922348,-0.501009 1.44586,-0.419514 1.08522,0.169071 1.52796,1.89213 0.393485,2.33074 -0.448098,0.17345 -1.10966,-0.0525457 -1.14105,-0.599411 -0.013623,-0.24047 0.121147,-0.463789 0.351035,-0.546986 0.277203,-0.101321 0.395674,0.102537 0.569367,0.260296 0.143163,0.129418 0.0891574,-0.34848 0.0310166,-0.428029 -0.125648,-0.170774 -0.417082,-0.321599 -0.630184,-0.281217l0 0.000121634zm-1.14713 0.721774c0.088306,0 -0.0780888,0 0,0zm-11.9134 -0.504293c0,-0.0678716 -0.00243267,0.118106 0,0zm1.56749 -1.16148c0.865302,0.046464 1.65677,0.413433 2.28367,1.00895 0.333033,0.316126 0.622886,0.678837 0.92697,1.0216 0.154596,0.174788 0.316491,0.347751 0.499671,0.492859 0.0741965,0.0586274 -0.000851435,0.145717 -0.0743181,0.0898872 -0.614615,-0.466587 -1.15698,-1.08923 -1.89031,-1.37312 -0.163354,-0.0633711 -1.00044,-0.0928065 -0.865667,-0.290461 0.0977934,-0.142555 0.325248,-0.182694 0.478263,-0.125404 0.0817378,0.03053 0.110687,-0.0519376 0.0304084,-0.0831974 -0.605857,-0.234023 -1.72671,-0.581774 -2.23599,0.0226239 -0.0581409,0.0692095 -0.26881,0.46756 -0.0475587,0.499914 0.128202,0.0186099 0.204223,-0.216751 0.392998,-0.176369 0.301651,0.0649524 0.431921,0.40504 0.304084,0.676161 -0.172598,0.366239 -0.659133,0.367334 -0.967839,0.187681 -0.293502,-0.17126 -0.408081,-0.46537 -0.401878,-0.789646 0,-0.861044 0.800349,-1.20356 1.56749,-1.16148zm17.7595 0.935606c-0.00377064,-0.0116768 0.739897,0.0648307 0.517308,0.300435 -0.0741965,0.0784537 -0.392025,-0.0175152 -0.504415,0.00352738 -0.194127,0.0363685 -0.368428,0.140244 -0.55392,0.204831 -0.322207,0.113363 -0.596126,0.352859 -0.853017,0.571313 -0.159583,0.135986 -0.494562,0.477777 -0.699272,0.526309 -0.161773,0.0385579 0.0611817,-0.175882 0.0739532,-0.187802 0.153502,-0.14669 0.288028,-0.316734 0.430461,-0.473641 0.271851,-0.3008 0.548933,-0.597221 0.858368,-0.860193 0.620818,-0.527039 1.49743,-0.862747 2.32016,-0.815553 0.79816,-0.0262729 1.78351,0.685162 1.346,1.59182 -0.320261,0.664484 -1.72355,0.547595 -1.35573,-0.281703 0.152164,-0.344223 0.56438,-0.298124 0.684919,0.0246916 0.0681148,0.182694 0.143649,-0.218576 0.143041,-0.230496 -0.00900089,-0.160921 -0.0822243,-0.312234 -0.199844,-0.422069 -0.263337,-0.245578 -0.76544,-0.313328 -1.10565,-0.253849 -0.105335,0.0186099 -1.13667,0.185491 -1.10164,0.302381l-0.000729802 0zm-2.29194 -1.78193c-0.0779672,-0.262607 -0.309436,-0.56584 -0.323059,-0.835866 -0.00559515,-0.112268 0.202398,-0.658038 0.34179,-0.403094 0.175152,0.320748 0.266499,0.68723 0.346048,1.0424 0.0121634,0.0568029 0.0884276,0.643077 0.129905,0.539688 0.109714,-0.27477 0.12954,-0.506482 0.341912,-0.738924 0.0512078,-0.0563164 0.231834,-0.289488 0.327316,-0.181842 0.0711557,0.0799133 -0.0492616,0.239983 0.0166638,0.286204 -0.0555866,-0.039166 0.573503,-0.283771 0.648307,-0.29557 0.0998612,0.0149609 0.642834,0.169192 0.412703,0.366604 -0.0806431,0.0694528 -0.243632,-0.0818594 -0.346169,-0.0645875 -0.114336,0.0197046 -0.228671,0.0476804 -0.333398,0.0988881 -0.597099,0.291313 -0.814702,1.00627 -0.989003,1.58209 -0.107281,0.352859 -0.212616,0.706691 -0.336317,1.0542 -0.0228671,0.0642226 -0.330114,0.882817 -0.403824,0.638455 -0.0681148,-0.22709 0.206899,-0.667404 0.251903,-0.897778 0.0706691,-0.361374 0.0751696,-0.719949 0.0716422,-1.08607 -0.00364901,-0.382173 -0.0476804,-0.7371 -0.156421,-1.10468l0 -0.000121634zm-11.7168 3.03075c-0.22636,0.0426934 -0.566448,-1.42348 -0.61352,-1.61383 -0.142068,-0.573138 -0.266743,-1.16379 -0.723598,-1.57917 -0.17941,-0.163111 -0.441044,-0.347264 -0.69842,-0.301408 -0.133432,0.0242051 -0.411973,0.0459775 -0.180018,-0.167976 0.155691,-0.143649 0.391295,-0.168463 0.583963,-0.0970636 0.108984,0.0406256 0.382659,0.347507 0.382903,0.113119 0,-0.00316247 0,-0.00231104 0,-0.000729802 0.0018245,-0.324762 0.31795,0.0169071 0.399202,0.118228 0.0739532,0.0923199 0.288637,0.821635 0.28961,0.821635 -0.00790619,0 0.350426,-1.45705 0.419271,-1.61274 0.145474,-0.331695 0.294475,-0.0769941 0.360765,0.15861 0.0605735,0.215292 -0.110078,0.447855 -0.184153,0.642834 -0.22782,0.601357 -0.332911,1.25125 -0.303841,1.89615 0.00875762,0.190965 0.366117,1.60374 0.268324,1.62271l-0.000486535 -0.000364901zm14.0391 -2.4688c0.252755,0.0162989 0.69988,0.280487 0.19133,0.221495 -0.396404,-0.045491 -0.750723,0.241443 -1.01552,0.500766 -0.157272,0.15411 -1.28615,1.73668 -1.31827,1.71807 -0.0436665,-0.0249349 0.697569,-1.73158 0.783564,-1.89639 0.095604,-0.182815 0.345804,-0.547473 0.578368,-0.566813 0.218697,-0.0176369 -0.0338141,0.318558 0.0288272,0.359184 0.00474371,0.00279757 0.64332,-0.321234 0.751696,-0.336317zm-15.2522 0.945215c-0.267107,-0.352738 -0.617412,-0.627021 -1.00895,-0.829298 -0.119323,-0.0619115 -0.250565,-0.115795 -0.388498,-0.0872113 -0.0684797,0.060087 -0.140365,0.0738316 -0.216508,0.0402607 -0.146325,-0.196925 0.445301,-0.231712 0.504536,-0.221738 0.230374,0.0398958 0.416474,0.139514 0.601965,0.275865 0.124431,0.0911036 0.051451,-0.127837 0.0367334,-0.174544 -0.000243267,-0.00170287 -0.00133797,-0.00389228 -0.00194614,-0.00754128 -0.000729802,-0.0180018 0,-0.0243267 0.000608168,-0.0243267 0.0223806,-0.232442 0.470479,0.205074 0.509888,0.25835 0.136351,0.183788 0.216994,0.402242 0.296664,0.614371 0.0462208,0.123458 0.558663,1.33785 0.499184,1.36351 -0.105821,0.0453693 -0.73783,-1.08096 -0.833434,-1.20746l-0.000243267 -0.000243267zm7.92613 1.53453c-0.594667,0.00778455 -1.17729,-0.00875762 -1.77038,-0.052789 -0.237794,-0.0181234 -0.498455,0.0928065 -0.485926,-0.233293 0.00778455,-0.206777 0.25835,-0.137811 0.388498,-0.135135 0.550149,0.0113119 1.10115,0.031868 1.65081,0.0322329 -0.0339358,0 -0.0622764,0 0.000364901,0 0.019583,0 0.0319896,0 0.0401391,0 -0.00985232,0 -0.0251782,0 -0.0398958,0 0.256039,0 0.664971,-0.117255 0.650132,0.256647 -0.00960906,0.226968 -0.291434,0.130878 -0.433746,0.132337l0 0zm-6.4866 -0.639915c-0.0512078,0.00535188 -0.07967,-0.0186099 -0.0856301,-0.0715206 -0.0665336,-0.175761 -0.0864815,-0.350548 -0.0767508,-0.60306 0,-0.242051 0.0240835,-0.426812 0.0726153,-0.634684 0.0474371,-0.201669 0.126377,-0.393363 0.1906,-0.589315 0.0201912,-0.0622764 0.189992,-0.446395 0.273797,-0.199114 0.045491,0.134648 -0.134648,0.411243 -0.182086,0.535918 -0.162259,0.427421 -0.235239,0.855571 -0.178193,1.3134 0.00389228,0.0298002 0.0772374,0.226482 -0.0143528,0.248376l0 0zm10.8385 -1.70847c-0.0302868,-0.0603303 -0.195222,-0.327194 0.017272,-0.312598 0.247403,-0.0141095 0.383876,0.859828 0.412338,1.03924 0.0150826,0.0959689 0.133919,1.188 -0.108132,1.11562 -0.0887925,-0.025908 0.0423285,-0.474858 0.0385579,-0.565231 -0.00717638,-0.185735 -0.0609384,-0.364658 -0.108862,-0.543337 -0.0675067,-0.253484 -0.133675,-0.497482 -0.251295,-0.733694l0.000121634 0zm-5.51791 -2.02727c0.0400175,-0.155934 0.207264,-0.218454 0.35067,-0.210061 0.223563,0.0125283 0.399323,0.333398 0.0666552,0.333398 -0.0761426,0.0158124 -0.453937,0.0188532 -0.417325,-0.123336zm0.270878 3.30564c0.27173,-0.00462208 0.288515,0.433016 0.0138662,0.433867 -0.269297,0.000608168 -0.293745,-0.428272 -0.0138662,-0.433867zm5.19826 -1.69776c-0.00231104,0 -0.00352738,0 -0.00547351,0 0.0014596,0 0.00340574,0 0.00547351,0 -0.279149,0.0010947 -0.273919,-0.436178 -0.00523025,-0.433259 0.250687,0.00291921 0.27769,0.432286 0.00523025,0.433259zm-10.5849 -0.369888l0 0.00170287c0,0.00401391 0,0.00608168 0,0.00936579 0,-0.00352738 0,-0.00741965 0,-0.0115552l0 0.000486535zm0 0.0127715c0,0.0102172 0,0.0161773 0,0.0187316 0,-0.00352738 0,-0.00997396 0,-0.0187316zm-0.000243267 -0.0397742c0,-0.00340574 0,-0.00304084 0,0zm0.000243267 0.0270027c0,-0.0110687 0,-0.0183667 0,-0.0228671 0,0.00583841 0,0.0142311 0,0.0228671zm0 0.00170287c-0.00158124,-0.278541 0.419879,-0.272216 0.418785,-0.000486535 -0.0018245,0.274041 -0.417447,0.27477 -0.418785,0.000486535zm0 0.0298002c0,0.00231104 0,0.00279757 0,0zm-0.000243267 -0.0548568c0,-0.0014596 0,-0.00255431 0,-0.00364901 0,0.000729802 0,0.00218941 0,0.00364901zm5.22283 -1.78291c-0.00948742,-0.279636 0.413554,-0.273797 0.417325,-0.00316247 0.00437881,0.279879 -0.408811,0.267959 -0.417325,0.00316247zm0.198871 -4.32833c8.14009,0 14.7392,6.59899 14.7392,14.7392 0,8.14021 -6.59911,14.7392 -14.7392,14.7392 -8.14021,0 -14.7393,-6.59899 -14.7393,-14.7392 0,-8.14021 6.59911,-14.7392 14.7393,-14.7392zm0 0.276595c-7.98719,0 -14.4627,6.47541 -14.4627,14.4626 0,7.98719 6.47553,14.4626 14.4627,14.4626 7.98707,0 14.4626,-6.47541 14.4626,-14.4626 0,-7.98719 -6.47553,-14.4626 -14.4626,-14.4626zm0 0.538837c7.6898,0 13.9235,6.23397 13.9235,13.924 0,7.68968 -6.23372,13.9235 -13.9235,13.9235 -7.68992,0 -13.9238,-6.23384 -13.9238,-13.9235 0,-7.69004 6.23384,-13.924 13.9238,-13.924zm0 0.138784c-7.61341,0 -13.785,6.17169 -13.785,13.7852 0,7.61317 6.17157,13.7847 13.785,13.7847 7.61329,0 13.7849,-6.17157 13.7849,-13.7847 0,-7.61354 -6.17157,-13.7852 -13.7849,-13.7852zm-7.93209 14.8117l-0.157151 1.4669 -3.71019 0 0 -0.114214 0.138541 0c0.12139,0 0.218941,-0.0212859 0.293015,-0.0645875 0.0531539,-0.0288272 0.0941444,-0.0780888 0.123093,-0.148028 0.0226239,-0.0492616 0.034179,-0.178558 0.034179,-0.388376l0 -2.74892c0,-0.213467 -0.0115552,-0.346899 -0.034179,-0.400418 -0.0226239,-0.0535188 -0.0692095,-0.0997396 -0.138541,-0.138662 -0.0681148,-0.0412338 -0.160191,-0.0617899 -0.277568,-0.0617899l-0.138541 0 0 -0.114214 2.22796 0 0 0.114214 -0.181964 0c-0.121147,0 -0.218819,0.0216508 -0.292894,0.0648307 -0.0531539,0.0288272 -0.0953608,0.0778455 -0.126012,0.147785 -0.0226239,0.0493833 -0.0340574,0.179166 -0.0340574,0.388255l0 2.6628c0,0.213467 0.012285,0.350305 0.0370983,0.409905 0.0244484,0.0575327 0.0729802,0.100713 0.144987,0.129297 0.0513294,0.0184883 0.175517,0.0276108 0.372807,0.0276108l0.348359 0c0.221738,0 0.406621,-0.0386795 0.554406,-0.117012 0.147906,-0.0778455 0.275257,-0.201425 0.382173,-0.369766 0.109105,-0.168341 0.211764,-0.417082 0.30822,-0.745614l0.126256 0zm3.09436 -1.41472l0 2.25582c0,0.219792 0.0201912,0.357846 0.061425,0.413189 0.0414771,0.0532755 0.12431,0.0870897 0.249471,0.101807l0 0.110808 -1.17425 0 0 -0.385457c-0.136959,0.164205 -0.275257,0.284501 -0.41246,0.3604 -0.137811,0.0744398 -0.291677,0.111173 -0.462451,0.111173 -0.162381,0 -0.307125,-0.0492616 -0.434597,-0.147663 -0.125161,-0.100834 -0.209453,-0.217724 -0.252755,-0.351521 -0.0431799,-0.13331 -0.0642226,-0.366604 -0.0642226,-0.699393l0 -1.14348c0,-0.217846 -0.0211643,-0.353224 -0.0616682,-0.406986 -0.039166,-0.0533972 -0.122607,-0.088306 -0.250079,-0.104727l0 -0.113971 1.17437 0 0 1.96937c0,0.205196 0.00900089,0.337655 0.0277325,0.397742 0.0205561,0.0593572 0.0510861,0.104605 0.0923199,0.135621 0.0431799,0.0302868 0.0924416,0.0457342 0.14815,0.0457342 0.07371,0 0.140608,-0.0192181 0.199966,-0.0582625 0.0824676,-0.0537621 0.181112,-0.161529 0.295691,-0.323789l0 -1.54073c0,-0.217846 -0.0201912,-0.353224 -0.061425,-0.406986 -0.0388011,-0.0533972 -0.12212,-0.088306 -0.249592,-0.104727l0 -0.113971 1.17437 0zm2.30848 1.11587l0.49882 0.949229c0.172963,0.330843 0.309436,0.540175 0.409905,0.628603 0.0557082,0.0469506 0.131608,0.0724936 0.227941,0.0771157l0 0.110808 -1.60556 0 0 -0.110808c0.125404,-0.0107038 0.20252,-0.0271243 0.231104,-0.0496265 0.0307733,-0.022259 0.0462208,-0.0532755 0.0462208,-0.0925632 0,-0.0570462 -0.0325978,-0.147906 -0.09828,-0.271l-0.249835 -0.468411 -0.212616 0.311139c-0.0966987,0.141703 -0.151069,0.226117 -0.163111,0.252876 -0.0164205,0.0390444 -0.0249349,0.0738316 -0.0249349,0.104727 0,0.0473155 0.00924416,0.0872113 0.0277325,0.119809 0.0207994,0.0311382 0.0471938,0.0547351 0.0799133,0.0712773 0.0352738,0.0143528 0.0979151,0.0217724 0.188289,0.0217724l0 0.110808 -1.12815 0 0 -0.110808c0.139879,0 0.267229,-0.0383146 0.382416,-0.114214 0.116768,-0.0783321 0.286447,-0.280366 0.508429,-0.607195l0.237307 -0.350913 -0.496387 -0.918699c-0.162138,-0.30007 -0.283163,-0.483859 -0.363563,-0.55173 -0.0801566,-0.067385 -0.169314,-0.105821 -0.268202,-0.114092l0 -0.113971 1.59656 0 0 0.113971 -0.0830758 0.00304084 -0.160435 0.0557082c-0.0164205,0.0141095 -0.0248133,0.0379497 -0.0248133,0.071034 0,0.03053 0.00510861,0.0625197 0.0156907,0.0953608 0.00583841,0.0144744 0.0346656,0.0699393 0.0861166,0.166395l0.224901 0.419271 0.11762 -0.166516c0.163962,-0.226117 0.24643,-0.384119 0.24643,-0.474493 0,-0.0433016 -0.0188532,-0.0794268 -0.0555866,-0.107889 -0.0350305,-0.0312598 -0.0987665,-0.0515727 -0.190843,-0.0619115l0 -0.113971 1.01953 0 0 0.113971c-0.125161,0.00401391 -0.242416,0.0434232 -0.3514,0.117133 -0.108497,0.0720071 -0.230861,0.212616 -0.366482,0.42219l-0.301651 0.462573zm5.4667 -2.50882l0 1.47335 -0.113727 0c-0.138176,-0.402972 -0.344223,-0.709124 -0.619967,-0.918699 -0.275135,-0.209088 -0.576178,-0.314058 -0.902522,-0.314058 -0.31272,0 -0.572408,0.0885493 -0.779915,0.264796 -0.207264,0.174788 -0.35444,0.419149 -0.440557,0.733572 -0.0867248,0.314666 -0.12954,0.636995 -0.12954,0.967474 0,0.400661 0.0473155,0.752182 0.141825,1.05408 0.0940228,0.301895 0.24643,0.523754 0.456126,0.665458 0.211278,0.141825 0.462329,0.213102 0.752061,0.213102 0.100713,0 0.203128,-0.0105821 0.308098,-0.0313815 0.106551,-0.0225022 0.215292,-0.0543702 0.326343,-0.0952391l0 -0.869194c0,-0.164327 -0.0110687,-0.270027 -0.0339358,-0.317464 -0.0221373,-0.0492616 -0.0693312,-0.093293 -0.141338,-0.132216 -0.0704259,-0.039166 -0.155205,-0.0585058 -0.256039,-0.0585058l-0.107889 0 0 -0.114214 2.0308 0 0 0.114214c-0.153867,0.0102172 -0.261756,0.0316247 -0.323424,0.0648307 -0.0597221,0.0307733 -0.106065,0.0831974 -0.139027,0.157029 -0.018245,0.039166 -0.0273676,0.134648 -0.0273676,0.286326l0 0.869194c-0.267229,0.119323 -0.545284,0.208237 -0.835136,0.267959 -0.287785,0.0616682 -0.586517,0.0928065 -0.896926,0.0928065 -0.396526,0 -0.725909,-0.0533972 -0.988881,-0.160191 -0.260904,-0.108862 -0.492251,-0.25093 -0.693433,-0.425353 -0.199479,-0.176855 -0.35517,-0.375118 -0.468776,-0.595153 -0.143771,-0.283163 -0.215413,-0.600748 -0.215413,-0.95227 0,-0.628603 0.220765,-1.15965 0.662417,-1.59267 0.441652,-0.433746 0.997396,-0.650497 1.66711,-0.650497 0.207507,0 0.394458,0.0164205 0.560974,0.0492616 0.0907387,0.0165422 0.236334,0.0634928 0.437516,0.141703 0.202885,0.0763859 0.323667,0.114092 0.360765,0.114092 0.0575327,0 0.110808,-0.0206777 0.16007,-0.0615466 0.0495049,-0.0426934 0.0942661,-0.123215 0.135986,-0.240591l0.113727 0zm1.96584 4.39134l-0.930254 -2.1354c-0.139635,-0.322572 -0.243632,-0.52047 -0.31126,-0.594302 -0.0660471,-0.0740749 -0.146082,-0.125769 -0.240226,-0.154718l0 -0.113971 1.53112 0 0 0.113971c-0.100591,0.00401391 -0.171503,0.0237186 -0.212494,0.058749 -0.0408689,0.0345439 -0.0615466,0.0766292 -0.0615466,0.126134 0,0.0784537 0.0512078,0.232199 0.153988,0.462329l0.493224 1.12803 0.335587 -0.872356c0.121269,-0.310044 0.181964,-0.525822 0.181964,-0.647091 0,-0.0756561 -0.0256647,-0.136595 -0.0767508,-0.181964 -0.0496265,-0.0448828 -0.137933,-0.0698177 -0.26504,-0.0738316l0 -0.113971 0.964311 0 0 0.113971c-0.0943877,0.0103389 -0.171503,0.0475587 -0.231104,0.110808 -0.0596005,0.0617899 -0.159097,0.274892 -0.298732,0.638212l-0.822973 2.1354c-0.207507,0.534458 -0.361374,0.862991 -0.462086,0.98657 -0.142068,0.172355 -0.319775,0.258593 -0.533242,0.258593 -0.170409,0 -0.309314,-0.04914 -0.415987,-0.147785 -0.104727,-0.0966987 -0.157272,-0.21371 -0.157272,-0.351521 0,-0.118836 0.0361252,-0.217481 0.107889,-0.295935 0.0739532,-0.0774806 0.164205,-0.117012 0.271365,-0.117012 0.102537,0 0.184883,0.0330843 0.245943,0.0986449 0.0641009,0.0659254 0.0968204,0.16749 0.0991314,0.304936 0.00206777,0.0782104 0.0111903,0.128567 0.0276108,0.151434 0.0162989,0.0223806 0.0398958,0.0336925 0.0709124,0.0336925 0.0492616,0 0.101807,-0.0299219 0.157029,-0.0894007 0.0824676,-0.0863599 0.178923,-0.283285 0.289853,-0.591626l0.0890358 -0.240591zm2.82324 -0.40954l0 1.07208c0,0.147906 0.0113119,0.248984 0.0339358,0.302138 0.02457,0.0535188 0.0615466,0.0925632 0.110687,0.117376 0.0493833,0.0244484 0.146082,0.036855 0.289731,0.036855l0 0.114092 -1.64242 0 0 -0.114092c0.127229,-0.00425718 0.22186,-0.0401391 0.283893,-0.107646 0.0407473,-0.047802 0.0611817,-0.169557 0.0611817,-0.366847l0 -3.04169c0,-0.203615 -0.0233537,-0.332425 -0.0706691,-0.388498 -0.0473155,-0.0572894 -0.138906,-0.0903738 -0.274405,-0.0986449l0 -0.113971 1.20807 0 0 0.379254c0.100591,-0.14815 0.203493,-0.254944 0.307976,-0.320383 0.150461,-0.096942 0.31345,-0.145109 0.490184,-0.145109 0.211764,0 0.40358,0.0666552 0.576178,0.200209 0.174666,0.133554 0.307247,0.318437 0.39762,0.555136 0.0904954,0.23378 0.135986,0.486778 0.135986,0.757777 0,0.291799 -0.0476804,0.559028 -0.141946,0.801444 -0.0926848,0.240226 -0.228428,0.424015 -0.406864,0.551487 -0.177099,0.125526 -0.373902,0.187924 -0.591869,0.187924 -0.158124,0 -0.306152,-0.0347872 -0.443719,-0.104848 -0.10278,-0.0530323 -0.210548,-0.144744 -0.323545,-0.274041zm0 -0.311382c0.176734,0.250687 0.365631,0.376091 0.567056,0.376091 0.111052,0 0.202398,-0.0586274 0.274041,-0.175639 0.106673,-0.17272 0.160313,-0.501495 0.160313,-0.986327 0,-0.496995 -0.0583841,-0.837204 -0.175639,-1.02014 -0.0778455,-0.121147 -0.182815,-0.181721 -0.314423,-0.181721 -0.207264,0 -0.377916,0.149974 -0.511348,0.450044l0 1.53769zm4.09261 -2.3575l0.0462208 0.982921 -0.104362 0c-0.125648,-0.291677 -0.256282,-0.490913 -0.392147,-0.597586 -0.13331,-0.106916 -0.266743,-0.160678 -0.400418,-0.160678 -0.0841705,0 -0.156056,0.0288272 -0.2159,0.0864815 -0.0591139,0.0554649 -0.0886709,0.120296 -0.0886709,0.194127 0,0.0555866 0.0201912,0.108984 0.0610601,0.160435 0.0659254,0.0844137 0.249471,0.229158 0.551608,0.434232 0.302503,0.203858 0.500401,0.377186 0.595153,0.520835 0.0965771,0.142068 0.144866,0.300922 0.144866,0.477655 0,0.1608 -0.0403824,0.317342 -0.120417,0.471817 -0.0801566,0.153745 -0.193276,0.272094 -0.338993,0.354319 -0.145595,0.082346 -0.307125,0.123215 -0.483615,0.123215 -0.138054,0 -0.321843,-0.0430583 -0.551852,-0.129418 -0.0616682,-0.0225022 -0.103632,-0.0338141 -0.126621,-0.0338141 -0.0675067,0 -0.123945,0.0512078 -0.169192,0.15411l-0.101564 0 -0.0492616 -1.03547 0.104605 0c0.0921983,0.271243 0.218576,0.474371 0.379132,0.609871 0.162138,0.135986 0.315274,0.203493 0.458924,0.203493 0.0987665,0 0.178801,-0.0299219 0.24047,-0.0894007 0.0638577,-0.0613033 0.095604,-0.135743 0.095604,-0.22186 0,-0.0984016 -0.0307733,-0.183667 -0.0921983,-0.255796 -0.0619115,-0.0716422 -0.199722,-0.180869 -0.412825,-0.326343 -0.314666,-0.218089 -0.517916,-0.384484 -0.610966,-0.499428 -0.135135,-0.168584 -0.203128,-0.354684 -0.203128,-0.557447 0,-0.22186 0.0761426,-0.422434 0.228063,-0.601235 0.154353,-0.180748 0.376091,-0.271243 0.665822,-0.271243 0.156299,0 0.307003,0.0379497 0.452842,0.114214 0.0558298,0.0308949 0.101078,0.0459775 0.135865,0.0459775 0.036855,0 0.066412,-0.00705475 0.0891574,-0.0212859 0.0225022,-0.0166638 0.0586274,-0.0613033 0.107767,-0.132702l0.10497 0z"/>
 </g>
</svg>
